<svg width="16" height="16" viewBox="0 0 16 16" fill="none" xmlns="http://www.w3.org/2000/svg">
<path d="M10.9888 0H1.01124C0.455056 0 0 0.430077 0 0.952916V7.66549C0 8.18833 0.455056 8.61841 1.01124 8.61841H2.80618V12C3.90169 10.87 4.98876 9.73999 6.08427 8.61841H10.9888C11.5449 8.61841 12 8.18833 12 7.66549V0.952916C12 0.430077 11.5449 0 10.9888 0Z" fill="currentColor"/>
<path d="M15.0038 4.00821H14.074V9.97538C14.074 10.5007 13.6257 10.9275 13.0777 10.9275H6.58566C6.05434 11.4774 5.53132 12.0356 5 12.5855C5.05811 12.5937 5.11623 12.6183 5.17434 12.6183H10.006C11.0853 13.7428 12.1562 14.8755 13.2355 16V12.6183H15.0038C15.5517 12.6183 16 12.1915 16 11.6662V4.95212C16 4.42681 15.5517 4 15.0038 4V4.00821Z" fill="currentColor"/>
</svg>
