<svg width="17" height="16" viewBox="0 0 17 16" fill="none" xmlns="http://www.w3.org/2000/svg">
<path d="M6.5 0C2.91 0 0 2.46 0 5.5C0 6.56 0.36 7.58 1 8.42V12L3.7 10.46C4.59 10.82 5.54 11 6.5 11C10.09 11 13 8.54 13 5.5C13 2.46 10.09 0 6.5 0Z" fill="currentColor"/>
<path d="M16.3 9.2401C16.28 8.2401 15.87 7.3001 15.15 6.6001C14.42 10.0901 10.96 12.7401 6.8 12.7401C6.7 12.7401 6.6 12.7201 6.5 12.7201C7.65 13.4001 8.96 13.7601 10.3 13.7401C10.74 13.7401 11.18 13.7001 11.61 13.6301L15.3 15.7401V11.7401H15.29C15.93 11.0601 16.29 10.1701 16.3 9.2401Z" fill="currentColor"/>
</svg>
