<svg width="16" height="17" viewBox="0 0 16 17" fill="none" xmlns="http://www.w3.org/2000/svg">
<path d="M15 11.0003H14.5C13.62 10.2403 13.08 9.1603 13 8.0003V5.0003C13.03 2.2703 10.83 0.0303032 8.1 0.00030321C8.07 0.00030321 8.03 0.00030321 8 0.00030321C5.27 -0.0296968 3.03 2.1703 3 4.9003C3 4.9303 3 4.9703 3 5.0003V8.0003C2.92 9.1603 2.38 10.2403 1.5 11.0003H1C0.45 11.0003 0 11.4503 0 12.0003C0 12.5503 0.45 13.0003 1 13.0003H15C15.55 13.0003 16 12.5503 16 12.0003C16 11.4503 15.55 11.0003 15 11.0003Z" fill="currentColor"/>
<path d="M8.00491 16.0405C9.10565 16.0405 10 15.144 10 14.0405H6C6 15.144 6.89435 16.0405 7.99509 16.0405H8.00491Z" fill="currentColor"/>
</svg>
